<svg xmlns="http://www.w3.org/2000/svg" viewBox="0 0 512 512" role="img" aria-labelledby="white-lab-icon-title">
  <title id="white-lab-icon-title">White Lab</title>
  <defs>
    <linearGradient id="icon-bg" x1="0" y1="0" x2="1" y2="1">
      <stop offset="0%" stop-color="#070d16"/>
      <stop offset="100%" stop-color="#0f1f2d"/>
    </linearGradient>
    <radialGradient id="icon-glow" cx="50%" cy="38%" r="70%">
      <stop offset="0%" stop-color="#7af2ff" stop-opacity="0.35"/>
      <stop offset="100%" stop-color="#7af2ff" stop-opacity="0"/>
    </radialGradient>
  </defs>

  <rect x="16" y="16" width="480" height="480" rx="122" fill="url(#icon-bg)"/>
  <ellipse cx="256" cy="188" rx="205" ry="140" fill="url(#icon-glow)"/>

  <g transform="translate(36 125) scale(0.34)">
    <path fill="#ffffff" d="M59.9,218.1c7.6,33.7,16.2,67.2,25.1,100.5,27.4,102.9,52.8,207.1,82.6,309.2,5.6,19.2,22.2,80.3,44.4,83.8,27.6,4.4,63.4-39.4,79.8-58.8,8.6-10.2,37.5-52.1,46.2-55.7,12.2-5,19.3,4.7,26.8,12.7,20.9,22.4,37.8,49.4,60.6,71.2,26.8,25.6,60.8,53.5,80.6,3.2,44.5-144.8,79.4-293.1,119.2-439.5,2.4-8.7,4.9-17.7,5.8-26.7h42.2l-116.8,456.8c-34,102.6-94.7,110.7-167.8,34.3-10.3-10.8-27.5-38.9-44.6-37.8-15.3,1-39.4,35.4-50.1,46.6-76,79.3-137.3,38.4-161.2-55L16,218.1h43.9Z"/>
    <path fill="#ffffff" d="M687.1,160.1h-42.2c15.6-57.6,2.3-120.1-69.4-115.9-86.3,5-141.4,91-242.6,84.4-83.2-5.4-165-99.7-243.3-81.8-55.8,12.8-50.3,68.2-43.9,113.3l-39.3,1.5-2.6-2.7L.2,127.6C-4.2,11.8,79-20.7,178.5,14.3c76.8,27,128.5,96.3,216.9,60.6C460,48.8,510.4-4.2,587.8.3c90,5.2,114.2,81.5,99.3,159.9Z"/>
    <polygon fill="#ffffff" points="755.6 221.6 755.6 353.4 899.7 353.4 899.7 221.6 940.1 221.6 940.1 520.3 899.7 520.3 899.7 388.5 715.2 388.5 715.2 221.6 755.6 221.6"/>
    <path fill="#ffffff" d="M1241.4,588.8c41.1,4.6,61.1,43.7,35.2,77.4l-15,10.5c42.5,9.9,40,69.8,1.7,85.2-4.3,1.7-20,6.2-23.7,6.2h-91.4l-2.6-2.6v-176.6c30.4,2.5,66-3.3,95.8,0ZM1182.5,660.8h53.6c1.8,0,10.7-6.6,12.2-8.9,7-10.8,0-31.6-12.2-31.6h-53.6v40.4ZM1182.5,736.4h50.1c.6,0,10.7-3.3,11.9-3.9,13.6-6.8,15.3-30.4,1.9-38-1.2-.7-9.7-3.7-10.3-3.7h-53.6v45.7Z"/>
    <polygon fill="#ffffff" points="755.6 443 755.6 731.1 904.9 731.1 904.9 766.2 717 766.2 717 443 755.6 443"/>
    <path fill="#ffffff" d="M1124.6,768h-40.4c-4.6-9.7-7.9-27.7-14.2-35.8-2.1-2.7-2.6-2.5-5.9-2.9-24.9-2.9-55.2,2.5-80.7,0l-16.9,37.9-38.7-.9,77.3-178.3c3.2-1.9,40.3-1.6,43.1.9l76.4,179.2ZM996.3,699.5h57.1c4.1-2.4,0-8.7-1.3-12.7-6.4-19.5-17.7-39.9-25.1-59.3l-30.7,72Z"/>
    <polygon fill="#ffffff" points="1286.2 332.3 1286.2 363.9 1194.8 363.9 1194.8 523.8 1156.2 523.8 1156.2 363.9 1066.6 363.9 1066.6 332.3 1286.2 332.3"/>
    <rect fill="#ffffff" x="991" y="330.5" width="38.7" height="191.5"/>
    <rect fill="#ffffff" x="1215.9" y="490.4" width="70.3" height="33.4"/>
    <rect fill="#ffffff" x="1215.9" y="404.3" width="70.3" height="33.4"/>
  </g>
</svg>
